<svg width="40" height="40" viewBox="0 0 40 40" fill="none" xmlns="http://www.w3.org/2000/svg">
<rect width="40" height="40" rx="12" fill="#F86D44"/>
<path d="M17.7107 22.6881H23.045L24.9713 25.1074L28.2312 28.8103L32.479 33.9451H26.4037L23.3908 30.4396L21.3657 27.5267L17.7107 22.6881ZM32.4296 19.4294C32.4296 22.2437 31.8822 24.6177 30.7873 26.5515C29.6924 28.4771 28.2148 29.9376 26.3543 30.9334C24.4939 31.9208 22.4194 32.4146 20.1309 32.4146C17.8259 32.4146 15.7432 31.9167 13.8828 30.921C12.0306 29.9171 10.557 28.4524 9.46218 26.5268C8.37556 24.593 7.83224 22.2272 7.83224 19.4294C7.83224 16.6152 8.37556 14.2453 9.46218 12.3197C10.557 10.3859 12.0306 8.92534 13.8828 7.93787C15.7432 6.94218 17.8259 6.44434 20.1309 6.44434C22.4194 6.44434 24.4939 6.94218 26.3543 7.93787C28.2148 8.92534 29.6924 10.3859 30.7873 12.3197C31.8822 14.2453 32.4296 16.6152 32.4296 19.4294ZM25.3665 19.4294C25.3665 17.9153 25.1648 16.6399 24.7614 15.603C24.3663 14.558 23.7777 13.768 22.9956 13.2331C22.2218 12.69 21.2669 12.4185 20.1309 12.4185C18.9949 12.4185 18.0359 12.69 17.2538 13.2331C16.48 13.768 15.8914 14.558 15.488 15.603C15.0929 16.6399 14.8953 17.9153 14.8953 19.4294C14.8953 20.9435 15.0929 22.2231 15.488 23.2682C15.8914 24.305 16.48 25.095 17.2538 25.6381C18.0359 26.1729 18.9949 26.4404 20.1309 26.4404C21.2669 26.4404 22.2218 26.1729 22.9956 25.6381C23.7777 25.095 24.3663 24.305 24.7614 23.2682C25.1648 22.2231 25.3665 20.9435 25.3665 19.4294Z" fill="#F1F1EF"/>
</svg>
